# Blender v2.82 (sub 7) OBJ File: ''
# www.blender.org
mtllib prism-blended.mtl
o prism.001
v 0.000000 -1.000000 -0.000000
v -0.866000 0.000000 -0.500000
v 0.000000 -0.000000 1.000000
v 0.866000 0.000000 -0.500000
v 0.000000 1.000000 0.000000
vt 0.000000 0.000000
vt 1.000000 0.000000
vt 1.000000 1.000000
vt 1.000000 0.000000
vt 1.000000 1.000000
vt 1.000000 0.000000
vt 1.000000 1.000000
vt 0.000000 0.000000
vt 1.000000 0.000000
vt 0.000000 0.000000
vt 0.000000 0.000000
vn 0.0000 1.0000 0.0000
vn 0.8660 0.0000 0.5000
vn 0.0000 0.0000 -1.0000
vn -0.8660 0.0000 0.5000
vn 0.0000 -1.0000 0.0000
usemtl Default_OBJ.001
s 1
f 1/1/1 2/2/2 3/3/3
f 1/1/1 3/4/3 4/5/4
f 1/1/1 4/6/4 2/7/2
f 2/8/2 5/9/5 3/3/3
f 3/10/3 5/9/5 4/5/4
f 4/11/4 5/9/5 2/7/2
